<svg xmlns="http://www.w3.org/2000/svg" width="28.517" height="34.513" viewBox="0 0 28.517 34.513">
  <path id="Path_14" data-name="Path 14" d="M251.535,761.042a2.878,2.878,0,0,1-1.362,1.1,8.21,8.21,0,0,1-2.546.271h-5.723l0-9.1a10.356,10.356,0,0,1,1.481.455,6.4,6.4,0,0,1,1.825,1.236c1.01.975,1.5,2.729,2.137,4.654h.953l-.631-8.523H247a2.373,2.373,0,0,1-.3,1.236.764.764,0,0,1-.434.3.774.774,0,0,1-.151.016,5.058,5.058,0,0,1-1.355-.376c-.438-.164-.846-.306-1.217-.431a14.578,14.578,0,0,0-1.639-.448l0-7.4h5.723a8.194,8.194,0,0,1,2.546.271,2.878,2.878,0,0,1,1.362,1.1,8.412,8.412,0,0,1,.84,2.652h1.117l-.27-5.832H232.664v1.088h.95c2.33,0,2.23.827,2.234,1.455v6.591a12.445,12.445,0,0,0-10.873,12.58c0,5.74,3.71,12.8,14.842,12.8a18.847,18.847,0,0,0,6.739-1.223c.1-.042.206-.084.312-.125.348-.142.7-.3,1.046-.477v-9.373h-6.238v1.008a3.663,3.663,0,0,1,2.936,1.165c.051.492.048,1.181.048,2.407l-.126,2.884a4.175,4.175,0,0,1-2.363,1.6c-.042.016-.087.029-.129.042a6.284,6.284,0,0,1-1.735.257c-6.057.468-9.482-3.4-9.482-10.911,0-3.57.927-8.319,5.021-10.151v7.84c0,.627.1,1.455-2.234,1.455h-.95v1.088h20.557l.27-5.832h-1.117A8.412,8.412,0,0,1,251.535,761.042Z" transform="translate(-224.975 -742.226)" fill="#c3071c"/>
</svg>
