<svg xmlns="http://www.w3.org/2000/svg" width="18.584" height="18.584" viewBox="0 0 18.584 18.584"><path d="M1.694,18.644a2.209,2.209,0,0,1-1.017-.577,2.045,2.045,0,0,1-.563-.97C.049,16.84.045,16.6.045,9.425c0-8.058-.015-7.615.2-8.069A2.167,2.167,0,0,1,1.3.307c.468-.207.011-.2,8.13-.185l7.48.007.232.08A2.2,2.2,0,0,1,18.535,1.6l.08.232.007,7.48c.011,8.308.029,7.687-.236,8.225a2.157,2.157,0,0,1-.919.919c-.53.261.073.243-8.148.24C3.034,18.7,1.879,18.688,1.694,18.644Zm14.474-2.211c.3-.211.305-.232.316-1.616.011-1.347,0-1.416-.218-1.63-.2-.2-.294-.207-1.609-.2l-1.2,0-.163.087a.893.893,0,0,0-.269.254l-.109.16,0,1.2c0,.657.011,1.256.029,1.325a.678.678,0,0,0,.37.458l.182.091,1.26-.011,1.256-.011ZM10.06,12.907a3.6,3.6,0,0,0,2.781-2.8,4.436,4.436,0,0,0,.04-1.18,3.657,3.657,0,0,0-1.863-2.673A3.9,3.9,0,0,0,10.06,5.9c-.069-.007-.214-.029-.323-.047A3.587,3.587,0,0,0,6.5,7.242a3.553,3.553,0,0,0,.069,4.412,3.621,3.621,0,0,0,2.4,1.3A3.79,3.79,0,0,0,10.06,12.907ZM3.738,10.55a5.763,5.763,0,0,1,.479-3.686A5.342,5.342,0,0,1,5.3,5.372,5.663,5.663,0,0,1,10.245,3.76a5.752,5.752,0,0,1,4.626,4.212,5.639,5.639,0,0,1,.149,2.033,4,4,0,0,1-.149.784c-.011.018-.007.033.011.036.138.015,1.551.011,1.576-.007s.029-1.623.025-4.052l-.011-4.034-.109-.156a.907.907,0,0,0-.272-.24l-.163-.084L9.3,2.264l-6.627.007-.149.1a.955.955,0,0,0-.232.236L2.2,2.743,2.191,6.756c0,2.208,0,4.027.007,4.049a3.908,3.908,0,0,0,.81.036h.8Z" transform="translate(-0.044 -0.116)"/></svg>