<svg xmlns="http://www.w3.org/2000/svg" width="157.511" height="20.089" viewBox="0 0 157.511 20.089">
  <g id="Group_54304" data-name="Group 54304" transform="translate(0 0)">
    <path id="Path_15" data-name="Path 15" d="M401.055,779.927h6.226v1.736h-8.008V767.851h7.912v1.736h-6.131v4.242h5.651v1.717h-5.651Z" transform="translate(-373.12 -764.713)" fill="#d7282f"/>
    <path id="Path_16" data-name="Path 16" d="M476.776,767.851a5.874,5.874,0,0,1,4.55,2,7.546,7.546,0,0,1,0,9.807,5.874,5.874,0,0,1-4.55,2h-5.23V767.851Zm0,12.076a4.263,4.263,0,0,0,3.353-1.48,5.877,5.877,0,0,0,0-7.38,4.263,4.263,0,0,0-3.353-1.48h-3.448v10.34Z" transform="translate(-435.24 -764.713)" fill="#d7282f"/>
    <path id="Path_17" data-name="Path 17" d="M571.236,779.927h6.226v1.736h-8.008V767.851h7.912v1.736h-6.13v4.242h5.651v1.717h-5.651Z" transform="translate(-518.655 -764.713)" fill="#d7282f"/>
    <path id="Path_18" data-name="Path 18" d="M650.061,767.851h1.782v13.813h-1.437l-6.9-10.32v10.32h-1.782V767.851h1.378l6.956,10.373Z" transform="translate(-580.443 -764.713)" fill="#d7282f"/>
    <path id="Path_19" data-name="Path 19" d="M767.868,773.292v.828a6.05,6.05,0,0,1-1.8,4.484,6.481,6.481,0,0,1-4.77,1.784,6.733,6.733,0,0,1-5.067-2.08,7.435,7.435,0,0,1,0-10.152,6.688,6.688,0,0,1,5.029-2.08,6.581,6.581,0,0,1,3.41.917,6.452,6.452,0,0,1,2.395,2.415l-1.533.927a4.384,4.384,0,0,0-1.734-1.8,5.287,5.287,0,0,0-6.332.867,5.342,5.342,0,0,0-1.475,3.834,5.287,5.287,0,0,0,1.485,3.824,5.1,5.1,0,0,0,3.841,1.538,4.991,4.991,0,0,0,3.257-1.015,4.163,4.163,0,0,0,1.514-2.631h-4.924v-1.656Z" transform="translate(-676.593 -762.94)" fill="#d7282f"/>
    <path id="Path_20" data-name="Path 20" d="M864.3,781.664l-1.094-3.1h-6.03l-1.095,3.1h-1.9l5-13.813h2.011l5,13.813Zm-6.518-4.815H862.6l-2.409-6.819Z" transform="translate(-762.08 -764.713)" fill="#d7282f"/>
    <path id="Path_21" data-name="Path 21" d="M952.782,779.927h5.786v1.736H951V767.851h1.782Z" transform="translate(-844.953 -764.713)" fill="#d7282f"/>
    <path id="Path_22" data-name="Path 22" d="M1019.326,779.927h5.786v1.736h-7.567V767.851h1.782Z" transform="translate(-901.861 -764.713)" fill="#d7282f"/>
    <path id="Path_23" data-name="Path 23" d="M1085.871,779.927h6.226v1.736h-8.008V767.851H1092v1.736h-6.13v4.242h5.651v1.717h-5.651Z" transform="translate(-958.76 -764.713)" fill="#d7282f"/>
    <path id="Path_24" data-name="Path 24" d="M1164.313,781.664l-3-5.288h-3.165v5.288h-1.782V767.851h5.364a3.981,3.981,0,0,1,2.951,1.253,4.3,4.3,0,0,1-1.552,7.035l3.161,5.525Zm-6.169-12.1v5.15h3.582a2.221,2.221,0,0,0,1.7-.76,2.6,2.6,0,0,0,.7-1.825,2.566,2.566,0,0,0-.7-1.815,2.235,2.235,0,0,0-1.7-.75Z" transform="translate(-1020.155 -764.713)" fill="#d7282f"/>
    <path id="Path_25" data-name="Path 25" d="M1239.083,767.851l-4.751,8.228v5.584h-1.782v-5.6l-4.732-8.209h1.993l3.648,6.483,3.632-6.483Z" transform="translate(-1081.572 -764.713)" fill="#d7282f"/>
    <path id="Path_14" data-name="Path 14" d="M240.434,753.178a1.676,1.676,0,0,1-.792.643,4.781,4.781,0,0,1-1.482.157h-3.331l0-5.3a6.03,6.03,0,0,1,.862.265,3.724,3.724,0,0,1,1.062.719A6.957,6.957,0,0,1,238,752.375h.554l-.367-4.961h-.39a1.381,1.381,0,0,1-.174.719.445.445,0,0,1-.253.174.453.453,0,0,1-.088.009,2.942,2.942,0,0,1-.789-.219c-.255-.1-.493-.178-.708-.251a8.472,8.472,0,0,0-.954-.261v-4.308h3.331a4.769,4.769,0,0,1,1.482.157,1.675,1.675,0,0,1,.792.643,4.9,4.9,0,0,1,.489,1.544h.65l-.157-3.395H229.451v.633H230c1.356,0,1.3.481,1.3.847v3.836a7.244,7.244,0,0,0-6.328,7.322c0,3.341,2.159,7.451,8.639,7.451a10.97,10.97,0,0,0,3.923-.712l.182-.073c.2-.083.4-.174.609-.277V755.8H234.7v.586a2.132,2.132,0,0,1,1.709.678c.03.287.028.688.028,1.4l-.073,1.678a2.431,2.431,0,0,1-1.375.929c-.024.009-.05.017-.075.024a3.651,3.651,0,0,1-1.01.15c-3.526.273-5.519-1.98-5.519-6.351,0-2.078.539-4.842,2.923-5.909v4.563c0,.365.056.847-1.3.847h-.553v.633h11.965l.157-3.395h-.65A4.9,4.9,0,0,1,240.434,753.178Z" transform="translate(-224.975 -742.226)" fill="#d7282f"/>
  </g>
</svg>
