<svg xmlns="http://www.w3.org/2000/svg" width="14.128" height="18.362" viewBox="0 0 14.128 18.362"><path d="M7.505.457C3.731.457,0,2.974,0,7.046c0,2.59,1.457,4.062,2.34,4.062.364,0,.574-1.015.574-1.3,0-.342-.872-1.071-.872-2.494A4.972,4.972,0,0,1,7.207,2.256c2.505,0,4.36,1.424,4.36,4.04,0,1.954-.784,5.618-3.322,5.618a1.634,1.634,0,0,1-1.7-1.611c0-1.391.971-2.737.971-4.172,0-2.436-3.455-1.994-3.455.949a4.322,4.322,0,0,0,.353,1.865C3.907,11.13,2.87,14.386,2.87,16.638c0,.7.1,1.38.166,2.075.125.14.063.125.254.055,1.854-2.539,1.788-3.035,2.627-6.357a2.984,2.984,0,0,0,2.55,1.324c3.907,0,5.662-3.808,5.662-7.24C14.128,2.841,10.971.457,7.505.457Z" transform="translate(0 -0.457)"/></svg>