<svg xmlns="http://www.w3.org/2000/svg" width="17.362" height="14.128" viewBox="0 0 17.362 14.128"><path d="M18.775,6.174a7.2,7.2,0,0,1-2.046.563A3.574,3.574,0,0,0,18.3,4.765a7.078,7.078,0,0,1-2.263.865A3.561,3.561,0,0,0,9.871,8.065a3.487,3.487,0,0,0,.092.813A10.094,10.094,0,0,1,2.62,5.151,3.569,3.569,0,0,0,3.727,9.912a3.479,3.479,0,0,1-1.619-.445v.044a3.565,3.565,0,0,0,2.859,3.5,3.586,3.586,0,0,1-.938.125,3.36,3.36,0,0,1-.67-.066,3.568,3.568,0,0,0,3.33,2.476,7.141,7.141,0,0,1-4.426,1.527,7.22,7.22,0,0,1-.85-.052,9.956,9.956,0,0,0,5.452,1.611A10.074,10.074,0,0,0,17.009,8.481c0-.155,0-.309-.011-.46A7.251,7.251,0,0,0,18.775,6.174Z" transform="translate(-1.413 -4.5)"/></svg>