<svg xmlns="http://www.w3.org/2000/svg" width="19.352" height="13.823" viewBox="0 0 19.352 13.823"><path d="M16.393,13.522a.622.622,0,0,0-.324-.583L10.54,9.483a.651.651,0,0,0-.7-.022.643.643,0,0,0-.356.6v6.911a.643.643,0,0,0,.356.6.747.747,0,0,0,.335.086.615.615,0,0,0,.367-.108L16.069,14.1a.622.622,0,0,0,.324-.583Zm5.529,0q0,1.037-.011,1.62t-.092,1.474a11.946,11.946,0,0,1-.243,1.593,2.526,2.526,0,0,1-.745,1.328,2.277,2.277,0,0,1-1.339.626,70.8,70.8,0,0,1-7.246.27A70.8,70.8,0,0,1,5,20.163a2.3,2.3,0,0,1-1.344-.626,2.51,2.51,0,0,1-.751-1.328,13.368,13.368,0,0,1-.232-1.593q-.081-.891-.092-1.474t-.011-1.62q0-1.037.011-1.62t.092-1.474a11.945,11.945,0,0,1,.243-1.593,2.526,2.526,0,0,1,.745-1.328A2.277,2.277,0,0,1,5,6.88a70.8,70.8,0,0,1,7.246-.27,70.8,70.8,0,0,1,7.246.27,2.3,2.3,0,0,1,1.344.626,2.511,2.511,0,0,1,.751,1.328,13.367,13.367,0,0,1,.232,1.593q.081.891.092,1.474T21.923,13.522Z" transform="translate(-2.571 -6.61)"/></svg>